<?xml version="1.0" encoding="UTF-8" standalone="no"?>
<svg width="543px" height="662px" viewBox="0 0 543 662" version="1.1" xmlns="http://www.w3.org/2000/svg" xmlns:xlink="http://www.w3.org/1999/xlink" xmlns:sketch="http://www.bohemiancoding.com/sketch/ns">
    <!-- Generator: Sketch 3.3.2 (12043) - http://www.bohemiancoding.com/sketch -->
    <title>download</title>
    <desc>Created with Sketch.</desc>
    <defs>
        <path id="path-1" d="M137.195,506.041 C126.549,518.399 114.627,536.353 112.49,539.607 C109.969,543.255 108.484,547.675 108.484,552.447 C108.484,564.947 118.619,575.08 131.119,575.08 C140.929,575.08 147.522,570.598 150.664,561.869 C151.096,560.67 151.87,558.982 152.535,557.259 L154.19,560.856 C155.454,563.604 158.169,565.223 161.008,565.223 C162.057,565.223 163.122,565.002 164.137,564.535 C167.9,562.804 169.548,558.349 167.816,554.587 L157.203,531.513 C157.105,531.301 156.997,531.099 156.883,530.901 C167.881,510.667 190.067,498.096 214.527,500.046 C222.784,500.71 230.014,494.548 230.674,486.29 C231.333,478.03 225.174,470.801 216.916,470.141 C184.689,467.56 155.088,481.868 137.195,506.041 Z"></path>
    </defs>
    <g id="Page-1" stroke="none" stroke-width="1" fill="none" fill-rule="evenodd" sketch:type="MSPage">
        <g id="download" sketch:type="MSLayerGroup">
            <circle id="Oval" fill="#F8E81C" sketch:type="MSShapeGroup" cx="271.635" cy="501.973" r="70.744"></circle>
            <path d="M220.239,550.02 L201.275,628.543 C201.025,629.578 200.893,630.615 200.863,631.639 L175.938,655.422 C174.903,656.409 174.573,657.927 175.105,659.255 C175.637,660.583 176.923,661.453 178.354,661.453 L226.675,661.453 C228.486,661.453 229.997,660.073 230.16,658.27 L233.268,624.072 C233.275,623.992 249.399,557.062 249.399,557.062 C251.346,549.01 246.395,540.904 238.342,538.959 C230.289,537.016 222.184,541.967 220.239,550.02 Z" id="Shape" fill="#B8E986" sketch:type="MSShapeGroup"></path>
            <path d="M367.117,655.216 L342.407,631.639 C342.378,630.615 342.245,629.578 341.995,628.543 L323.032,550.02 C321.087,541.967 312.981,537.014 304.929,538.959 C296.876,540.904 291.925,549.009 293.869,557.063 L309.994,623.833 C309.996,623.913 309.994,623.993 310.001,624.073 L313.109,658.271 C313.273,660.074 314.784,661.454 316.594,661.454 L364.915,661.454 C364.921,661.455 364.928,661.455 364.935,661.454 C366.868,661.454 368.435,659.888 368.435,657.954 C368.436,656.846 367.92,655.857 367.117,655.216 L367.117,655.216 Z" id="Shape" fill="#4990E2" sketch:type="MSShapeGroup"></path>
            <g id="Shape">
                <use fill="#50E3C2" fill-rule="evenodd" sketch:type="MSShapeGroup" xlink:href="#path-1"></use>
                <use fill="none" xlink:href="#path-1"></use>
            </g>
            <path d="M430.782,539.607 C428.645,536.353 416.724,518.402 406.079,506.044 C388.186,481.872 358.586,467.565 326.355,470.141 C318.096,470.801 311.938,478.031 312.597,486.289 C313.257,494.547 320.487,500.707 328.744,500.045 C353.206,498.093 375.39,510.664 386.389,530.899 C386.274,531.097 386.165,531.3 386.068,531.512 L375.454,554.586 C373.724,558.349 375.37,562.803 379.134,564.534 C380.15,565.001 381.214,565.222 382.264,565.222 C385.102,565.222 387.818,563.603 389.082,560.855 L390.736,557.259 C391.401,558.982 392.174,560.669 392.606,561.868 C395.749,570.597 402.342,575.079 412.151,575.079 C424.651,575.079 434.788,564.946 434.788,552.446 C434.788,547.676 433.301,543.256 430.782,539.607 L430.782,539.607 Z" id="Shape" fill="#BD0FE1" sketch:type="MSShapeGroup"></path>
            <path d="M270.554,513.137 C275.313,519.731 285.815,531.059 299.282,526.225 C308.993,522.739 313.663,504.383 313.663,504.383 C313.663,504.383 325.632,514.225 346.966,509.008 C368.3,503.793 373.792,483.885 373.792,483.885 C373.792,483.885 369.632,511.557 392.966,508.819 C416.14,506.098 408.484,463.307 408.378,462.725 C411.151,478.061 427.769,492.879 439.896,476.575 C449.027,464.296 446.388,443.688 444.927,429.464 C446.081,440.712 457.794,459.927 471.169,453.402 C488.655,444.869 479.999,411.625 475.63,398.226 C482.237,418.484 505.773,406.23 511.124,392.527 C518.681,373.185 504.778,348.959 495.267,332.681 C503.919,344.029 523.4,354.122 529.353,334.831 C539.884,300.709 513.724,268.85 492.779,245.078 C501.808,255.828 540.802,290.384 542.564,255.387 C544.173,223.316 512.408,199.707 486.287,187.939 C494.266,191.301 502.777,194.774 511.517,195.301 C534.554,196.689 530.927,175.837 519.701,163.463 C507.732,150.271 492.107,140.029 476.189,132.208 C481.597,137.406 495.81,146.257 503.402,145.173 C516.525,143.301 522.601,118.563 516.298,111.559 C498.298,91.559 467.745,98.789 456.298,103.559 L460.876,102.307 C481.651,96.412 485.185,76.559 479.31,60.973 C467.72,30.227 416.687,43.848 388.039,54.806 C397.773,51.082 409.172,51.137 414.182,40.084 C418.809,29.875 412.993,19.138 403.424,14.56 C379.262,3 353.524,24.499 334.754,37.23 C341.449,31.92 353.153,23.948 354.836,14.906 C358.18,-3.062 330.357,-0.574 320.455,1.814 C301.853,6.3 285.172,18.486 274.242,34.101 L269.03,34.101 C258.101,18.486 241.419,6.3 222.818,1.814 C212.916,-0.575 185.094,-3.062 188.437,14.906 C190.12,23.948 201.824,31.921 208.519,37.23 C189.751,24.5 164.012,3.001 139.849,14.56 C130.28,19.138 124.464,29.875 129.091,40.084 C134.101,51.137 145.499,51.082 155.234,54.806 C126.587,43.848 75.552,30.227 63.963,60.973 C58.088,76.559 61.621,96.412 82.397,102.307 L86.975,103.559 C75.528,98.789 44.975,91.559 26.975,111.559 C20.672,118.563 26.748,143.301 39.871,145.173 C47.463,146.257 61.677,137.406 67.084,132.208 C51.168,140.029 35.542,150.27 23.572,163.463 C12.345,175.837 8.719,196.689 31.757,195.301 C40.496,194.774 49.008,191.301 56.986,187.939 C30.866,199.708 -0.9,223.316 0.711,255.387 C2.471,290.384 41.465,255.828 50.494,245.078 C29.549,268.85 3.39,300.71 13.92,334.831 C19.875,354.122 39.355,344.028 48.007,332.681 C38.495,348.958 24.592,373.185 32.149,392.527 C37.503,406.23 61.037,418.484 67.643,398.226 C63.274,411.624 54.618,444.869 72.105,453.402 C85.479,459.927 97.192,440.713 98.346,429.464 C96.886,443.689 94.246,464.296 103.378,476.575 C115.504,492.88 132.122,478.061 134.896,462.725 C134.791,463.307 127.133,506.098 150.308,508.819 C173.641,511.557 169.481,483.885 169.481,483.885 C169.481,483.885 174.973,503.793 196.307,509.008 C217.641,514.225 229.61,504.383 229.61,504.383 C229.61,504.383 234.279,522.738 243.991,526.225 C257.303,531.002 267.721,519.989 272.554,513.366" id="Shape" fill="#000000" sketch:type="MSShapeGroup"></path>
            <g id="Group" transform="translate(91.000000, 203.000000)" sketch:type="MSShapeGroup">
                <g>
                    <circle id="Oval" fill="#FF0000" cx="78.301" cy="77.921" r="70.497"></circle>
                    <path d="M78.301,155.418 C35.569,155.418 0.804,120.653 0.804,77.921 C0.804,35.189 35.569,0.424 78.301,0.424 C121.033,0.424 155.798,35.189 155.798,77.921 C155.798,120.653 121.033,155.418 78.301,155.418 L78.301,155.418 Z M78.301,14.424 C43.289,14.424 14.804,42.909 14.804,77.921 C14.804,112.933 43.289,141.418 78.301,141.418 C113.313,141.418 141.798,112.934 141.798,77.921 C141.798,42.908 113.313,14.424 78.301,14.424 L78.301,14.424 Z" id="Shape" fill="#231F20"></path>
                </g>
                <g transform="translate(205.000000, 0.000000)" id="Oval" fill="#FF0000">
                    <circle cx="77.97" cy="77.921" r="70.498"></circle>
                </g>
                <g transform="translate(39.000000, 38.000000)" id="Shape" fill="#231F20">
                    <path d="M77.736,28.195 C72.583,11.641 57.461,0.518 40.108,0.518 C18.381,0.518 0.705,18.195 0.705,39.921 C0.705,61.649 18.381,79.324 40.108,79.324 C57.461,79.324 72.583,68.202 77.736,51.647 C78.321,49.771 77.273,47.776 75.397,47.191 L52.069,39.92 L75.397,32.649 C77.273,32.066 78.321,30.072 77.736,28.195 L77.736,28.195 Z"></path>
                    <path d="M280.066,47.192 L256.738,39.921 L280.066,32.65 C281.941,32.065 282.99,30.071 282.405,28.194 C277.252,11.64 262.13,0.517 244.777,0.517 C223.05,0.517 205.375,18.194 205.375,39.92 C205.375,61.648 223.051,79.323 244.777,79.323 C262.13,79.323 277.252,68.201 282.405,51.646 C282.99,49.772 281.941,47.777 280.066,47.192 L280.066,47.192 Z"></path>
                </g>
            </g>
            <path d="M286.312,282.509 C282.469,281.881 278.845,284.486 278.216,288.329 C277.483,292.814 272.993,293.29 271.635,293.329 L271.639,293.558 L271.632,293.558 L271.635,293.329 C270.277,293.29 265.787,292.814 265.054,288.329 C264.426,284.486 260.801,281.881 256.959,282.509 C253.116,283.138 250.511,286.762 251.139,290.604 C253.312,303.886 265.422,307.416 271.522,307.428 L271.523,307.192 C271.594,307.194 271.665,307.203 271.737,307.203 L271.749,307.203 L271.749,307.429 C277.849,307.418 289.959,303.887 292.132,290.605 C292.76,286.762 290.155,283.138 286.312,282.509 L286.312,282.509 Z" id="Shape" fill="#FFFFFF" sketch:type="MSShapeGroup"></path>
            <text id="J" sketch:type="MSTextLayer" font-family="Lucida Grande" font-size="82" font-weight="normal" fill="#FFFFFF">
                <tspan x="266" y="492">J</tspan>
            </text>
        </g>
    </g>
</svg>